PathFileType	4	(X/Y/Z)	33_1_51_p1_0-299_filt_butterworth.trc
DataRate	CameraRate	NumFrames	NumMarkers	Units	OrigDataRate	OrigDataStartFrame	OrigNumFrames
59.0	59.0	7	27	m	59.0	74	299
Frame#	Time	RHip			RKnee			RAnkle			RBigToe			RSmallToe			RHeel			LHip			LKnee			LAnkle			LBigToe			LSmallToe			LHeel			Neck			Head			Nose			RShoulder			RElbow			RWrist			RThumb			RIndex			RPinky			LShoulder			LElbow			LWrist			LThumb			LIndex			LPinky			
		X1	Y1	Z1	X2	Y2	Z2	X3	Y3	Z3	X4	Y4	Z4	X5	Y5	Z5	X6	Y6	Z6	X7	Y7	Z7	X8	Y8	Z8	X9	Y9	Z9	X10	Y10	Z10	X11	Y11	Z11	X12	Y12	Z12	X13	Y13	Z13	X14	Y14	Z14	X15	Y15	Z15	X16	Y16	Z16	X17	Y17	Z17	X18	Y18	Z18	X19	Y19	Z19	X20	Y20	Z20	X21	Y21	Z21	X22	Y22	Z22	X23	Y23	Z23	X24	Y24	Z24	X25	Y25	Z25	X26	Y26	Z26	X27	Y27	Z27	
74	1.2542372881355932	0.3042391205233358	0.24734156684888517	0.2085935640683677	0.2630659669714888	0.49836229603885784	0.5764338413249188	0.24731258632685135	0.7122778585752754	0.9214169126046913	0.2564012846301077	0.5789665933867747	1.0062033095843759	0.31578585919008767	0.6185141850011205	0.9985918875493975	0.21990559771073429	0.8224109843774392	0.9686597407185026	0.09815446569447453	0.21084414434962553	0.21451015559246078	0.11058884648411965	0.4581038077270623	0.572881577348346	0.09341389426388268	0.7605577974664066	0.9526061300366395	0.09410158648545443	0.5494283546849761	1.000421635867044	0.04750637262377963	0.6170701158653792	1.0008825654902298	0.09463469578313786	0.8480168720231365	0.9892131992774982	0.21300186242795732	-0.03921413413569833	-0.33848367251250816	0.22048097036434725	-0.17302495893345154	-0.5352409947679092	0.23047727915375518	-0.19660567315655042	-0.38686091474445095	0.3873988424056042	0.02602778548501562	-0.24081970999590474	0.40115929175232823	0.10915065056017259	-0.006320026582418186	0.4466418278129298	-0.10498712833874871	0.04482824987464759	0.5152284470880767	-0.2462725413067819	0.040524683597723286	0.5055078825621604	-0.26177998774753375	0.057324243515887795	0.47119936143348945	-0.2485664810437939	0.08620704120899852	0.04999646063932454	0.02965532055621533	-0.27345976127256577	-0.007121429054677033	0.10567620686028137	-0.011404813294881268	0.009023916493307724	-0.1205972591801033	0.0016496580468164405	0.011390920710500052	-0.2039317417438788	-0.04630649341486717	0.007224142530213655	-0.26007064195511104	-0.01658362195546288	0.02607568651276837	-0.28759080597202946	0.03937999090450781
75	1.271186440677966	0.30730752325383454	0.2426799580134622	0.2080620126674801	0.26318394251025934	0.49802715319272456	0.5764689147466993	0.24788899594344138	0.7105281012902369	0.9212899474817051	0.2565549608554464	0.5798631612226763	1.0062652487182864	0.3164608928922902	0.622087426065011	0.9988182247910513	0.21990661657288776	0.8214751472330885	0.9680265320837504	0.09942910510388066	0.21357021651337516	0.21247056289251207	0.11048946589463235	0.45740651585974534	0.5719456372524018	0.09293923045783715	0.7595799203457133	0.9516725766084215	0.09463997858625027	0.5543717486263371	1.0011025866959995	0.04954875332577821	0.6176128500228208	1.001009308324838	0.09445943723933121	0.8473173228417571	0.9891247969805401	0.214288468210736	-0.04227780407522189	-0.3364329675128153	0.21928701287534966	-0.17301451846046342	-0.5349871978007346	0.22959140873083186	-0.1999651272424082	-0.38533693241926403	0.3862568274662843	0.025037722150405593	-0.24100118855517672	0.40691255155217393	0.10244864019909916	-3.542709179980754e-05	0.44309586859030065	-0.11735306947078461	0.026625795911248085	0.5040308360943501	-0.23944018471237147	-0.007710153752936818	0.4916494895262228	-0.2648382324468192	0.009857270321726721	0.4599255840635499	-0.26331326158614193	0.045688220844384814	0.05248790183611625	0.02867781937228929	-0.2760295379362286	-0.006747036910071625	0.08715249578286993	-1.4901644387541046e-07	0.014249549801305978	-0.14020906435853442	-0.018373233491717746	0.0164699581341361	-0.20576066705940255	-0.0846010758597992	0.018739933823167743	-0.25835586347507444	-0.05950796494463468	0.040706102838294476	-0.3026411596930419	-0.005768324245909388
76	1.2881355932203389	0.3096392045140104	0.2385518321953575	0.2067014705040135	0.2631569521488678	0.4976423001975828	0.5764330277212384	0.24733371997708026	0.7123336715087647	0.9214380256262817	0.25642530989679196	0.5792444352011823	1.006357518063928	0.3169880203694117	0.6247782590768896	0.9989510427204159	0.21988057818453613	0.8217950972186756	0.969202972485033	0.101958712748218	0.21515298343181738	0.21088856205001916	0.11046837900422796	0.45717273603873854	0.5716076581137246	0.09302358750230841	0.7585798671982077	0.9500832104181062	0.09496275211276968	0.5577884575518788	1.001221511713431	0.05025413103651245	0.6175173970319242	1.0008788173369336	0.09440823665274063	0.8470567917903075	0.9890795265634703	0.21579234189493893	-0.04655996992821335	-0.33597496468811405	0.218800327187541	-0.17297589763431645	-0.5348887813186896	0.22893659591432075	-0.20261929886336363	-0.3841375274190454	0.38217284590071054	0.027369650253470327	-0.24339700884817567	0.412403794063441	0.0960673927944995	0.0030971057587958345	0.4372267854900177	-0.12850342918892876	0.0019574300561640686	0.48254539901282856	-0.2240571845485878	-0.06259175732415283	0.4705988055763398	-0.2679310980461601	-0.045000622268342665	0.4442824053014731	-0.2875935566265946	0.001179861548768927	0.05612172264155266	0.027910462068276236	-0.27933764317056886	-0.00870478984934743	0.07753539185924915	0.00597075114728225	0.01731834133883437	-0.14968394050316117	-0.039949519140216924	0.026065252586788195	-0.19850575995526146	-0.12468562810807897	0.03290035796726392	-0.24950784803932055	-0.10080782177637833	0.05368038408576427	-0.3019436430147781	-0.049357330920328686
77	1.305084745762712	0.3105384917982442	0.23641115270131458	0.20537199940397838	0.26304710153997657	0.49719485595464513	0.5760241911303118	0.24575587376001257	0.7173371633139644	0.9218405863315532	0.25633594654467406	0.578652010511036	1.0064990009987465	0.3172902168258338	0.625829132093539	0.9990642349137547	0.21991346683303623	0.8222611335379367	0.970498645105446	0.10416279632805221	0.2157300746936871	0.21014264365493027	0.1105095720773881	0.4572442320901087	0.5716588045941938	0.09391403298322726	0.7580716742459496	0.948692743795432	0.09505527099514184	0.5589485068790369	1.0010957357186023	0.050282166133666484	0.6170729319436977	1.000781667878519	0.09448466488220406	0.8471150023509881	0.9890826493666842	0.21653923723727503	-0.04816921018381525	-0.3380350374247123	0.21873861916592152	-0.1730003617299901	-0.5350862044634387	0.22867265718254612	-0.20360817970646333	-0.3837086971415409	0.3760679518387637	0.03401368849988691	-0.24581901059309222	0.41754194493447644	0.08798279990835078	0.0027869722870932385	0.4310081658836364	-0.13813941851004197	-0.02650434753880461	0.45533792703299675	-0.20234753132583477	-0.11874186242664396	0.44978930590913047	-0.2651778390364027	-0.10312914673907982	0.4288668357391451	-0.31026079184026345	-0.04428817215132352	0.059516851849674056	0.027565360744474472	-0.2831694499683297	-0.013155027960003816	0.0721675837180208	0.006683708737165794	0.019034877877210168	-0.15257988364428574	-0.06293462779320022	0.038912101868450316	-0.18215504977767216	-0.16467553642689556	0.047556639585815005	-0.23549181595894264	-0.14168425748553498	0.06443260298036044	-0.2935704136611955	-0.08773447095181068
78	1.3220338983050848	0.3105124834050254	0.23562286717361708	0.204313181281251	0.2628510563524182	0.49638375457680356	0.575001917651998	0.24376357789613956	0.7236226141830943	0.9223463182277933	0.25641569653522633	0.5785389033838508	1.0065416458831065	0.3174921632667904	0.625876022253512	0.9991012186786845	0.21995211162196449	0.822456840287227	0.971047710384403	0.10499885991602294	0.21497550145531144	0.20906621906933212	0.11055485247996197	0.45730619196809674	0.571666859032899	0.0949414643356492	0.7578522857096738	0.948066539930729	0.09505536509696827	0.5588030623800799	1.001016026497478	0.05009076461541694	0.6169751407377013	1.0007504007161152	0.09455241647749184	0.8472504679218916	0.9890918825251327	0.216263858584902	-0.043985599570487734	-0.3421636715042199	0.21873301922675872	-0.17321691780171827	-0.5356994110516784	0.22857721612811144	-0.2028993190204702	-0.3840726809552423	0.3691360180646035	0.04274188000296672	-0.24848695997936776	0.42241327749214097	0.07729039180650997	0.00026783542675768465	0.4253373577192013	-0.14224216974841639	-0.052467755140845354	0.4294805983258725	-0.17411705458889334	-0.16860020448603294	0.43029687500305924	-0.2502322462128064	-0.15639533031878755	0.41215334211467003	-0.3140999064754064	-0.08580652473563422	0.061548087458296555	0.02709017433615095	-0.2869056886309304	-0.019638382462564195	0.06488915560561405	0.003436572139797054	0.019926520866669212	-0.15484128123024782	-0.08524696100110335	0.05076981931190787	-0.1615199092797437	-0.199483414278189	0.05983088513073878	-0.2153838701939562	-0.1798797795250341	0.07332434852634852	-0.2804572444498181	-0.11826621757355743
79	1.3389830508474576	0.31022006668480967	0.23486081622071234	0.20274006735282624	0.26260995846585533	0.4953099222578541	0.5736639632026387	0.24230237508559463	0.72821429537857	0.9227128682718343	0.2565448776075649	0.578617244356968	1.0063382125023266	0.317479967668192	0.6256992920741169	0.9990215129740018	0.21997136829278457	0.822458058773956	0.971080723975568	0.10509842369136874	0.21365756210513584	0.20673906054348293	0.11052541131199863	0.45703883749318	0.571223118457477	0.09501094424563344	0.7574615179687927	0.9480864967212929	0.09506281527991665	0.5584524306858814	1.0010836132109866	0.0494885948549018	0.618485541565676	1.0006371722710246	0.09423392750646775	0.846967572402253	0.9890781428270643	0.2159547313351956	-0.03526319047906342	-0.34680703304841715	0.21867144401186248	-0.17361944592847003	-0.5365394650266235	0.22839703828597008	-0.20079519309381272	-0.38507952258434003	0.3629974561081453	0.04665434896589603	-0.2530956336299859	0.42679510309657487	0.0645893249703655	-0.003153645213679025	0.4212927500628827	-0.1402732812445987	-0.07213431450808507	0.4106633827386774	-0.14331097579157445	-0.20628551376463145	0.4092025348295391	-0.22117005341300766	-0.19777947739079535	0.38977473169942056	-0.2902397728310743	-0.11989859386580658	0.062201434592678	0.025790240814350475	-0.28878316220278477	-0.026599363797640135	0.05008801754253829	-0.0016749612977247042	0.018619357072408204	-0.1581058846601529	-0.10356378440205133	0.05695628371269129	-0.14472854247795727	-0.22456308804243286	0.06834322321557108	-0.19066043132767008	-0.20962059940422473	0.08330742026273491	-0.25551754864490034	-0.1398908957956583
80	1.3559322033898304	0.3099484717645041	0.23397169952847793	0.20019832005924004	0.26240805993356214	0.49449975926834777	0.5727014332173082	0.24174940997617905	0.7299365009862475	0.922823109819418	0.2563391672603587	0.578659632030843	1.0059440041819137	0.3167104604181756	0.6258002353991725	0.9989523318141307	0.21997169916839548	0.8224371176948613	0.9710173237210257	0.10570992289329732	0.21372843878958628	0.20377406273314183	0.1103829402875796	0.45629772312381034	0.5701893895690323	0.09331242738862244	0.7573084978331567	0.9484802603829321	0.09506675463857213	0.5582338485395798	1.001152149174208	0.0481328796475376	0.6224949807980753	1.0002874764852983	0.0931915757387354	0.8458165936583162	0.9890441429724519	0.21667578989583325	-0.026499389124039992	-0.3505503646565399	0.21860328021255943	-0.1740360940459662	-0.5371530041418182	0.2281207592812014	-0.19814906608648292	-0.38631892715392124	0.3594706332989844	0.040303227480832676	-0.25908893972846303	0.4311427118248304	0.050122285920979975	-0.005906722966240476	0.4194912149597123	-0.13678682010255266	-0.08648972126623877	0.39968288813686986	-0.11915804107370893	-0.22948648783572953	0.3862747236454791	-0.18331028769320606	-0.22609101561160755	0.36115463783027363	-0.24435062882016212	-0.14436681682591493	0.06186183734373161	0.023750159990198666	-0.2871690100034964	-0.032519852522094043	0.027840778836705972	-0.006572355405427617	0.01356442936018105	-0.15975773927402145	-0.11623717757350274	0.055717957692389714	-0.1343268847012366	-0.23983386098769835	0.07417509494304374	-0.1652389508411698	-0.22781018070276648	0.09663619964471606	-0.2167977978482345	-0.15253247060865188
